<svg width="85" height="80" viewBox="0 0 85 80" fill="none" xmlns="http://www.w3.org/2000/svg">
<path d="M0 40C0 62.0914 19.0006 80 42.439 80C65.8775 80 84.8781 62.0914 84.8781 40C84.8781 17.9086 65.8775 0 42.439 0C19.0006 0 0 17.9086 0 40Z" fill="#231E1B"/>
<path fill-rule="evenodd" clip-rule="evenodd" d="M42.3741 20.4805C30.6936 20.4805 21.2195 29.4101 21.2195 40.4193C21.2195 49.2266 27.3193 56.6884 35.6254 59.3795C36.6637 59.5019 37.053 58.8903 37.053 58.401C37.053 57.9117 37.053 56.6884 37.053 54.9759C31.2128 56.1991 29.9149 52.2847 29.9149 52.2847C29.0065 49.9606 27.5788 49.349 27.5788 49.349C25.6321 48.1257 27.7086 48.1257 27.7086 48.1257C29.7852 48.2481 30.9532 50.2052 30.9532 50.2052C32.8999 53.2633 35.885 52.4071 37.053 51.9178C37.1828 50.5722 37.8317 49.7159 38.3508 49.2266C33.6786 48.7373 28.7469 47.0248 28.7469 39.3184C28.7469 37.1166 29.5256 35.404 30.9532 33.9361C30.8234 33.5692 30.0447 31.4896 31.2128 28.7985C31.2128 28.7985 33.0297 28.3092 37.053 30.878C38.7402 30.3887 40.5571 30.2664 42.3741 30.2664C44.1911 30.2664 46.008 30.511 47.6952 30.878C51.7185 28.3092 53.5354 28.7985 53.5354 28.7985C54.7035 31.4896 53.9248 33.5692 53.795 34.0584C55.0928 35.404 56.0013 37.2389 56.0013 39.4407C56.0013 47.1471 51.0696 48.7373 46.3974 49.2266C47.1761 49.8383 47.825 51.0615 47.825 52.8964C47.825 55.5875 47.825 57.667 47.825 58.401C47.825 58.8903 48.2143 59.5019 49.2526 59.3795C57.6885 56.6884 63.6585 49.2266 63.6585 40.4193C63.5287 29.4101 54.0546 20.4805 42.3741 20.4805Z" fill="white"/>
</svg>
